<svg width="114" height="24" viewBox="0 0 114 24" fill="none" xmlns="http://www.w3.org/2000/svg">
<g clip-path="url(#clip0_16:105)">
<path d="M96.0252 13.5006L91.202 9.08475L97.7858 8.38172L100.612 2.55387L103.334 8.42846L109.905 9.24326L105.003 13.5771L106.237 19.9081L100.485 16.7114L94.6778 19.8093L96.0252 13.5006ZM97.8164 12.9512L97.0053 16.7499L100.502 14.8842L103.965 16.8085L103.222 12.9967L106.173 10.3879L102.217 9.898L100.579 6.36066L98.8762 9.86942L94.9123 10.2921L97.8164 12.9512V12.9512Z" fill="#C9C9C9"/>
</g>
<g clip-path="url(#clip1_16:105)">
<path d="M71.4426 13.5006L66.6194 9.08475L73.2032 8.38172L76.0296 2.55387L78.7515 8.42846L85.322 9.24326L80.4201 13.5771L81.654 19.9081L75.9028 16.7114L70.0952 19.8093L71.4426 13.5006ZM73.2338 12.9512L72.4227 16.7499L75.9189 14.8842L79.3822 16.8085L78.6391 12.9967L81.5903 10.3879L77.634 9.898L75.9961 6.36066L74.2936 9.86942L70.3297 10.2921L73.2338 12.9512V12.9512Z" fill="#C9C9C9"/>
</g>
<g clip-path="url(#clip2_16:105)">
<path d="M10.0134 14.4001L6.7373 16.4307L7.68858 12.71L4.73242 10.2604L8.57685 9.97877L9.98213 6.44614L11.4511 9.97746L15.2311 10.2593L12.3391 12.7104L13.2259 16.4295L10.0134 14.4001Z" fill="#FCC21B"/>
<path d="M15.1517 19.1203C15.2217 19.0703 15.2753 19.0005 15.3056 18.92C15.3359 18.8394 15.3416 18.7517 15.322 18.6679L14.0309 13.2653L18.2315 9.70808C18.2971 9.65214 18.3447 9.57794 18.368 9.49492C18.3913 9.41189 18.3894 9.32381 18.3625 9.24188C18.3082 9.07494 18.1594 8.9569 17.9829 8.94295L12.4936 8.53416L10.3623 3.4032C10.3287 3.32383 10.2724 3.25613 10.2005 3.20861C10.1286 3.16108 10.0443 3.13584 9.95806 3.13605C9.78183 3.14018 9.62333 3.24621 9.55775 3.41013L7.51845 8.53298L1.94009 8.94311C1.7638 8.95565 1.61235 9.07477 1.55934 9.24299C1.52965 9.33234 1.53148 9.42403 1.55901 9.50876C1.58408 9.58591 1.63064 9.65607 1.69415 9.70953L5.98127 13.2648L4.6039 18.6605C4.55928 18.833 4.62477 19.0131 4.7678 19.1176C4.83736 19.1689 4.92071 19.1981 5.00706 19.2014C5.0934 19.2048 5.17877 19.1821 5.25209 19.1364L10.0062 16.1893L14.6684 19.1347C14.7411 19.1811 14.8261 19.2045 14.9122 19.202C14.9984 19.1994 15.0819 19.1709 15.1517 19.1203V19.1203ZM10.0134 14.4001L6.73772 16.432L7.68859 12.71L4.73328 10.2587L8.57771 9.9771L9.98299 6.44447L11.4507 9.9762L15.2311 10.2593L12.3391 12.7104L13.2272 16.4291L10.0134 14.4001Z" fill="#F79329"/>
</g>
<g clip-path="url(#clip3_16:105)">
<path d="M30.9028 14.4001L27.6266 16.4307L28.5779 12.71L25.6218 10.2604L29.4662 9.97877L30.8715 6.44614L32.3404 9.97746L36.1205 10.2593L33.2284 12.7104L34.1153 16.4295L30.9028 14.4001Z" fill="#FCC21B"/>
<path d="M36.041 19.1203C36.111 19.0703 36.1646 19.0005 36.1949 18.92C36.2253 18.8394 36.231 18.7517 36.2114 18.6679L34.9202 13.2653L39.1209 9.70808C39.1865 9.65214 39.234 9.57794 39.2573 9.49492C39.2806 9.41189 39.2787 9.32381 39.2518 9.24188C39.1976 9.07494 39.0488 8.9569 38.8723 8.94295L33.383 8.53416L31.2516 3.4032C31.218 3.32383 31.1617 3.25613 31.0898 3.20861C31.0179 3.16108 30.9336 3.13584 30.8474 3.13605C30.6712 3.14018 30.5127 3.24621 30.4471 3.41013L28.4078 8.53298L22.8294 8.94311C22.6531 8.95565 22.5017 9.07477 22.4487 9.24299C22.419 9.33234 22.4208 9.42403 22.4484 9.50876C22.4734 9.58591 22.52 9.65607 22.5835 9.70953L26.8706 13.2648L25.4932 18.6605C25.4486 18.833 25.5141 19.0131 25.6571 19.1176C25.7267 19.1689 25.8101 19.1981 25.8964 19.2014C25.9827 19.2048 26.0681 19.1821 26.1414 19.1364L30.8955 16.1893L35.5577 19.1347C35.6304 19.1811 35.7154 19.2045 35.8016 19.202C35.8878 19.1994 35.9712 19.1709 36.041 19.1203V19.1203ZM30.9028 14.4001L27.6271 16.432L28.5779 12.71L25.6226 10.2587L29.4671 9.9771L30.8723 6.44447L32.34 9.9762L36.1205 10.2593L33.2285 12.7104L34.1165 16.4291L30.9028 14.4001Z" fill="#F79329"/>
</g>
<g clip-path="url(#clip4_16:105)">
<path d="M52.5658 14.4001L49.2897 16.4307L50.2409 12.71L47.2848 10.2604L51.1292 9.97877L52.5345 6.44614L54.0035 9.97746L57.7835 10.2593L54.8915 12.7104L55.7783 16.4295L52.5658 14.4001Z" fill="#FCC21B"/>
<path d="M57.704 19.1203C57.774 19.0703 57.8276 19.0005 57.858 18.92C57.8883 18.8394 57.894 18.7517 57.8744 18.6679L56.5832 13.2653L60.7839 9.70808C60.8495 9.65214 60.897 9.57794 60.9203 9.49492C60.9437 9.41189 60.9417 9.32381 60.9148 9.24188C60.8606 9.07494 60.7118 8.9569 60.5353 8.94295L55.046 8.53416L52.9146 3.4032C52.881 3.32383 52.8248 3.25613 52.7529 3.20861C52.681 3.16108 52.5966 3.13584 52.5104 3.13605C52.3342 3.14018 52.1757 3.24621 52.1101 3.41013L50.0708 8.53298L44.4925 8.94311C44.3162 8.95565 44.1647 9.07477 44.1117 9.24299C44.082 9.33234 44.0838 9.42403 44.1114 9.50876C44.1364 9.58591 44.183 9.65607 44.2465 9.70953L48.5336 13.2648L47.1563 18.6605C47.1116 18.833 47.1771 19.0131 47.3202 19.1176C47.3897 19.1689 47.4731 19.1981 47.5594 19.2014C47.6458 19.2048 47.7311 19.1821 47.8045 19.1364L52.5585 16.1893L57.2207 19.1347C57.2934 19.1811 57.3784 19.2045 57.4646 19.202C57.5508 19.1994 57.6342 19.1709 57.704 19.1203V19.1203ZM52.5658 14.4001L49.2901 16.432L50.241 12.71L47.2857 10.2587L51.1301 9.9771L52.5354 6.44447L54.0031 9.9762L57.7835 10.2593L54.8915 12.7104L55.7796 16.4291L52.5658 14.4001Z" fill="#F79329"/>
</g>
<defs>
<clipPath id="clip0_16:105">
<rect width="19.6184" height="19.1812" fill="white" transform="matrix(0.956034 -0.293255 0.308308 0.951287 88.5826 5.7532)"/>
</clipPath>
<clipPath id="clip1_16:105">
<rect width="19.6184" height="19.1812" fill="white" transform="matrix(0.956034 -0.293255 0.308308 0.951287 64 5.7532)"/>
</clipPath>
<clipPath id="clip2_16:105">
<rect width="17.0209" height="17.0209" fill="white" transform="translate(0 6.25977) rotate(-18)"/>
</clipPath>
<clipPath id="clip3_16:105">
<rect width="17.0209" height="17.0209" fill="white" transform="translate(20.8893 6.25977) rotate(-18)"/>
</clipPath>
<clipPath id="clip4_16:105">
<rect width="17.0209" height="17.0209" fill="white" transform="translate(42.5524 6.25977) rotate(-18)"/>
</clipPath>
</defs>
</svg>
