<svg width="123" height="24" viewBox="0 0 123 24" fill="none" xmlns="http://www.w3.org/2000/svg">
<g clip-path="url(#clip0_16:103)">
<path d="M105.773 13.5006L100.95 9.08475L107.534 8.38172L110.36 2.55388L113.082 8.42846L119.652 9.24326L114.751 13.5771L115.984 19.9081L110.233 16.7114L104.426 19.8093L105.773 13.5006ZM107.564 12.9512L106.753 16.7499L110.249 14.8843L113.713 16.8085L112.97 12.9967L115.921 10.3879L111.964 9.898L110.326 6.36067L108.624 9.86942L104.66 10.2921L107.564 12.9512V12.9512Z" fill="#C9C9C9"/>
</g>
<g clip-path="url(#clip1_16:103)">
<path d="M81.1904 13.5006L76.3672 9.08475L82.951 8.38172L85.7774 2.55388L88.4993 8.42846L95.0698 9.24326L90.1679 13.5771L91.4018 19.9081L85.6506 16.7114L79.843 19.8093L81.1904 13.5006ZM82.9816 12.9512L82.1705 16.7499L85.6667 14.8843L89.13 16.8085L88.3869 12.9967L91.3381 10.3879L87.3818 9.898L85.7439 6.36067L84.0414 9.86942L80.0775 10.2921L82.9816 12.9512V12.9512Z" fill="#C9C9C9"/>
</g>
<g clip-path="url(#clip2_16:103)">
<path d="M56.6078 13.5006L51.7846 9.08475L58.3684 8.38172L61.1948 2.55388L63.9167 8.42846L70.4872 9.24326L65.5853 13.5771L66.8192 19.9081L61.068 16.7114L55.2604 19.8093L56.6078 13.5006ZM58.399 12.9512L57.5879 16.7499L61.0841 14.8843L64.5474 16.8085L63.8043 12.9967L66.7555 10.3879L62.7992 9.898L61.1613 6.36067L59.4588 9.86942L55.4949 10.2921L58.399 12.9512V12.9512Z" fill="#C9C9C9"/>
</g>
<g clip-path="url(#clip3_16:103)">
<path d="M32.0252 13.5006L27.202 9.08475L33.7858 8.38172L36.6122 2.55388L39.3341 8.42846L45.9046 9.24326L41.0027 13.5771L42.2366 19.9081L36.4854 16.7114L30.6778 19.8093L32.0252 13.5006ZM33.8164 12.9512L33.0053 16.7499L36.5015 14.8843L39.9648 16.8085L39.2217 12.9967L42.173 10.3879L38.2166 9.898L36.5787 6.36067L34.8762 9.86942L30.9123 10.2921L33.8164 12.9512V12.9512Z" fill="#C9C9C9"/>
</g>
<g clip-path="url(#clip4_16:103)">
<path d="M7.44263 13.5006L2.6194 9.08475L9.20318 8.38172L12.0296 2.55388L14.7515 8.42846L21.322 9.24326L16.4201 13.5771L17.654 19.9081L11.9028 16.7114L6.09518 19.8093L7.44263 13.5006ZM9.23382 12.9512L8.42268 16.7499L11.9189 14.8843L15.3822 16.8085L14.6391 12.9967L17.5903 10.3879L13.634 9.898L11.9961 6.36067L10.2936 9.86942L6.32972 10.2921L9.23382 12.9512V12.9512Z" fill="#C9C9C9"/>
</g>
<defs>
<clipPath id="clip0_16:103">
<rect width="19.6184" height="19.1812" fill="white" transform="matrix(0.956034 -0.293255 0.308308 0.951287 98.3304 5.75319)"/>
</clipPath>
<clipPath id="clip1_16:103">
<rect width="19.6184" height="19.1812" fill="white" transform="matrix(0.956034 -0.293255 0.308308 0.951287 73.7478 5.75319)"/>
</clipPath>
<clipPath id="clip2_16:103">
<rect width="19.6184" height="19.1812" fill="white" transform="matrix(0.956034 -0.293255 0.308308 0.951287 49.1652 5.75319)"/>
</clipPath>
<clipPath id="clip3_16:103">
<rect width="19.6184" height="19.1812" fill="white" transform="matrix(0.956034 -0.293255 0.308308 0.951287 24.5826 5.75319)"/>
</clipPath>
<clipPath id="clip4_16:103">
<rect width="19.6184" height="19.1812" fill="white" transform="matrix(0.956034 -0.293255 0.308308 0.951287 0 5.75319)"/>
</clipPath>
</defs>
</svg>
