<svg width="36" height="36" viewBox="0 0 36 36" fill="none" xmlns="http://www.w3.org/2000/svg">
<path d="M17.85 21.2574C21.855 21.2574 29.85 23.2674 29.85 27.2574V31.7574H5.85001V27.2574C5.85001 23.2674 13.845 21.2574 17.85 21.2574ZM17.85 7.75735C19.4413 7.75735 20.9674 8.3895 22.0926 9.51471C23.2179 10.6399 23.85 12.1661 23.85 13.7574C23.85 15.3487 23.2179 16.8748 22.0926 18C20.9674 19.1252 19.4413 19.7574 17.85 19.7574C16.2587 19.7574 14.7326 19.1252 13.6074 18C12.4821 16.8748 11.85 15.3487 11.85 13.7574C11.85 12.1661 12.4821 10.6399 13.6074 9.51471C14.7326 8.3895 16.2587 7.75735 17.85 7.75735ZM17.85 24.1074C13.395 24.1074 8.70001 26.2974 8.70001 27.2574V28.9074H27V27.2574C27 26.2974 22.305 24.1074 17.85 24.1074ZM17.85 10.6074C17.0146 10.6074 16.2134 10.9392 15.6226 11.53C15.0319 12.1207 14.7 12.9219 14.7 13.7574C14.7 14.5928 15.0319 15.394 15.6226 15.9847C16.2134 16.5755 17.0146 16.9074 17.85 16.9074C18.6854 16.9074 19.4867 16.5755 20.0774 15.9847C20.6681 15.394 21 14.5928 21 13.7574C21 12.9219 20.6681 12.1207 20.0774 11.53C19.4867 10.9392 18.6854 10.6074 17.85 10.6074Z" fill="black"/>
</svg>
