<svg width="30" height="31" viewBox="0 0 30 31" fill="none" xmlns="http://www.w3.org/2000/svg"><path d="M0 15.1308C0 14.3814 0.256292 13.6627 0.712494 13.1328C1.1687 12.6028 1.78744 12.3051 2.43261 12.3051H21.6988L15.3092 4.88292C14.8795 4.34725 14.6456 3.63877 14.6567 2.90672C14.6678 2.17466 14.9231 1.4762 15.3688 0.958481C15.8145 0.440761 16.4158 0.144201 17.046 0.131285C17.6762 0.118369 18.2861 0.390104 18.7473 0.889239L29.2886 13.134C29.7441 13.6638 30 14.382 30 15.1308C30 15.8797 29.7441 16.5979 29.2886 17.1277L18.7473 29.3725C18.2861 29.8716 17.6762 30.1433 17.046 30.1304C16.4158 30.1175 15.8145 29.8209 15.3688 29.3032C14.9231 28.7855 14.6678 28.087 14.6567 27.355C14.6456 26.6229 14.8795 25.9144 15.3092 25.3788L21.6988 17.9566H2.43261C1.78744 17.9566 1.1687 17.6589 0.712494 17.1289C0.256292 16.599 0 15.8803 0 15.1308Z" fill="#C9C9C9"/></svg>
