<svg width="8" height="8" viewBox="0 0 8 8" fill="none" xmlns="http://www.w3.org/2000/svg">
<path d="M8 4C8 4.19985 7.93166 4.39151 7.81 4.53282C7.68835 4.67414 7.52335 4.75352 7.35131 4.75352H2.21364L3.91755 6.73278C4.03213 6.87562 4.09451 7.06455 4.09155 7.25977C4.08858 7.45498 4.0205 7.64124 3.90165 7.7793C3.7828 7.91736 3.62245 7.99644 3.4544 7.99988C3.28634 8.00333 3.1237 7.93086 3.00072 7.79776L0.189713 4.53249C0.0682339 4.3912 -3.17659e-08 4.19968 -3.17659e-08 4C-3.17659e-08 3.80032 0.0682339 3.6088 0.189713 3.46751L3.00072 0.202238C3.1237 0.0691352 3.28634 -0.00332693 3.4544 0.000117396C3.62245 0.00356172 3.7828 0.0826436 3.90165 0.220702C4.0205 0.358761 4.08858 0.545017 4.09155 0.740231C4.09451 0.935445 4.03213 1.12438 3.91755 1.26722L2.21364 3.24648L7.35131 3.24648C7.52335 3.24648 7.68835 3.32586 7.81 3.46718C7.93166 3.60849 8 3.80015 8 4Z" fill="#C9C9C9"/>
</svg>
