<svg width="30" height="30" viewBox="0 0 30 30" fill="none" xmlns="http://www.w3.org/2000/svg"><path d="M30 15C30 15.7494 29.7437 16.4682 29.2875 16.9981C28.8313 17.528 28.2126 17.8257 27.5674 17.8257H8.30116L14.6908 25.2479C15.1205 25.7836 15.3544 26.4921 15.3433 27.2241C15.3322 27.9562 15.0769 28.6546 14.6312 29.1724C14.1855 29.6901 13.5842 29.9866 12.954 29.9996C12.3238 30.0125 11.7139 29.7407 11.2527 29.2416L0.711424 16.9968C0.255877 16.467 -6.70426e-07 15.7488 -6.70426e-07 15C-6.70426e-07 14.2512 0.255877 13.533 0.711424 13.0032L11.2527 0.758391C11.7139 0.259257 12.3238 -0.012476 12.954 0.000440235C13.5842 0.0133565 14.1855 0.309913 14.6312 0.827634C15.0769 1.34535 15.3322 2.04381 15.3433 2.77587C15.3544 3.50792 15.1205 4.21641 14.6908 4.75207L8.30116 12.1743L27.5674 12.1743C28.2126 12.1743 28.8313 12.472 29.2875 13.0019C29.7437 13.5318 30 14.2506 30 15Z" fill="#C9C9C9"/></svg>
