<svg width="16" height="16" viewBox="0 0 16 16" fill="none" xmlns="http://www.w3.org/2000/svg">
<path d="M11.69 7.995L9.434 10.251C9.29981 10.3848 9.22125 10.5645 9.21413 10.7539C9.20701 10.9433 9.27185 11.1283 9.39561 11.2718C9.51938 11.4154 9.69289 11.5067 9.88126 11.5275C10.0696 11.5483 10.2589 11.4971 10.411 11.384L10.495 11.311L14.031 7.776L14.099 7.697L14.139 7.637L14.189 7.543L14.222 7.452L14.237 7.384L14.247 7.322L14.25 7.228L14.246 7.169L14.231 7.075L14.201 6.975L14.154 6.877L14.119 6.822C14.093 6.78369 14.0636 6.74787 14.031 6.715L14.099 6.794C14.0782 6.76613 14.0555 6.73974 14.031 6.715L10.495 3.18C10.361 3.04705 10.1818 2.96951 9.99314 2.96286C9.80449 2.95622 9.62027 3.02096 9.47725 3.14416C9.33423 3.26737 9.24293 3.43997 9.22156 3.62752C9.2002 3.81508 9.25035 4.00379 9.362 4.156L9.434 4.24L11.69 6.495L8 6.495C4.349 6.495 1.868 8.572 1.754 11.533L1.75 11.745C1.75 11.9439 1.82902 12.1347 1.96967 12.2753C2.11032 12.416 2.30109 12.495 2.5 12.495C2.69891 12.495 2.88968 12.416 3.03033 12.2753C3.17098 12.1347 3.25 11.9439 3.25 11.745C3.25 9.617 4.942 8.088 7.743 8L8 7.995L11.69 7.995L9.434 10.251L11.69 7.995Z" fill="black"/>
</svg>
