<svg width="21" height="19" viewBox="0 0 21 19" fill="none" xmlns="http://www.w3.org/2000/svg">
<path d="M20.6 8.22L16 4.52V2C16.0245 1.49494 15.8477 1.00078 15.5084 0.625867C15.1691 0.250952 14.695 0.0258806 14.19 0H2.79C2.28857 0.0309596 1.81952 0.258233 1.48448 0.632584C1.14944 1.00693 0.975373 1.49822 1 2V12C0.990719 12.3971 1.09989 12.788 1.31361 13.1228C1.52733 13.4576 1.8359 13.7212 2.2 13.88C2.01583 14.3305 1.94406 14.8191 1.99087 15.3036C2.03767 15.7881 2.20166 16.2539 2.46867 16.6609C2.73568 17.0678 3.09771 17.4037 3.5235 17.6395C3.94929 17.8753 4.42607 18.004 4.91269 18.0144C5.39931 18.0249 5.88116 17.9167 6.31667 17.6994C6.75217 17.482 7.12825 17.1619 7.41245 16.7668C7.69665 16.3717 7.88044 15.9133 7.94796 15.4313C8.01548 14.9492 7.9647 14.458 7.8 14H14.16C13.9955 14.4531 13.9427 14.9392 14.0059 15.4171C14.0692 15.895 14.2466 16.3506 14.5233 16.7454C14.8 17.1401 15.1677 17.4624 15.5954 17.6849C16.023 17.9074 16.4979 18.0235 16.98 18.0235C17.4621 18.0235 17.937 17.9074 18.3646 17.6849C18.7923 17.4624 19.16 17.1401 19.4367 16.7454C19.7134 16.3506 19.8908 15.895 19.9541 15.4171C20.0173 14.9392 19.9645 14.4531 19.8 14H20C20.2652 14 20.5196 13.8946 20.7071 13.7071C20.8946 13.5196 21 13.2652 21 13V9C20.9969 8.84815 20.9593 8.69898 20.89 8.56384C20.8207 8.42869 20.7215 8.3111 20.6 8.22V8.22ZM19 9.48V12H16V7.08L19 9.48ZM6 15C6 15.1978 5.94135 15.3911 5.83147 15.5556C5.72159 15.72 5.56541 15.8482 5.38268 15.9239C5.19996 15.9996 4.99889 16.0194 4.80491 15.9808C4.61093 15.9422 4.43275 15.847 4.29289 15.7071C4.15304 15.5673 4.0578 15.3891 4.01921 15.1951C3.98063 15.0011 4.00043 14.8 4.07612 14.6173C4.15181 14.4346 4.27998 14.2784 4.44443 14.1685C4.60888 14.0586 4.80222 14 5 14C5.26522 14 5.51957 14.1054 5.70711 14.2929C5.89464 14.4804 6 14.7348 6 15ZM11 12H3V2H14V12H11ZM18 15C18 15.1978 17.9414 15.3911 17.8315 15.5556C17.7216 15.72 17.5654 15.8482 17.3827 15.9239C17.2 15.9996 16.9989 16.0194 16.8049 15.9808C16.6109 15.9422 16.4327 15.847 16.2929 15.7071C16.153 15.5673 16.0578 15.3891 16.0192 15.1951C15.9806 15.0011 16.0004 14.8 16.0761 14.6173C16.1518 14.4346 16.28 14.2784 16.4444 14.1685C16.6089 14.0586 16.8022 14 17 14C17.2652 14 17.5196 14.1054 17.7071 14.2929C17.8946 14.4804 18 14.7348 18 15Z" fill="white"/>
</svg>
