<svg width="24" height="26" viewBox="0 0 24 26" fill="none" xmlns="http://www.w3.org/2000/svg">
<path d="M21 3.61694H6.42188L6.28125 2.98791C6.125 2.18414 5.77344 1.5289 5.22656 1.02218C4.67969 0.51546 4.03125 0.2621 3.28125 0.2621H0.984375C0.703125 0.2621 0.46875 0.366939 0.28125 0.576616C0.09375 0.786294 0 1.06586 0 1.41533C0 1.72984 0.09375 1.99194 0.28125 2.20162C0.46875 2.41129 0.703125 2.51613 0.984375 2.51613H3.28125C3.875 2.51613 4.21875 2.81318 4.3125 3.40726L6.60938 16.8266C6.79688 17.5605 7.16406 18.1546 7.71094 18.6089C8.25781 19.0632 8.85938 19.2903 9.51562 19.2903H18.9844C19.2969 19.2903 19.5469 19.1855 19.7344 18.9758C19.9219 18.7661 20.0156 18.504 20.0156 18.1895C20.0156 17.4207 19.6719 17.0363 18.9844 17.0363H9.51562C9.07813 17.0363 8.76562 16.8266 8.57812 16.4073L8.48438 15.9355H18.5156C19.1406 15.9355 19.7109 15.7258 20.2266 15.3065C20.7422 14.8871 21.0938 14.3454 21.2812 13.6815L24 7.23387V6.97178C24 6.02823 23.7109 5.2332 23.1328 4.5867C22.5547 3.94019 21.8438 3.61694 21 3.61694ZM19.5 12.7903V12.8952C19.4062 13.4194 19.0781 13.6815 18.5156 13.6815H8.10938L6.79688 5.87097H21C21.5625 5.87097 21.8906 6.16801 21.9844 6.7621L19.5 12.7903ZM12 22.6452C12 23.2742 11.8047 23.8071 11.4141 24.244C11.0234 24.6808 10.5469 24.8992 9.98438 24.8992C9.45313 24.8992 8.99219 24.6808 8.60156 24.244C8.21094 23.8071 8.01562 23.2742 8.01562 22.6452C8.01562 22.0161 8.21094 21.4832 8.60156 21.0464C8.99219 20.6095 9.45313 20.3911 9.98438 20.3911C10.5469 20.3911 11.0234 20.6095 11.4141 21.0464C11.8047 21.4832 12 22.0161 12 22.6452ZM20.0156 22.6452C20.0156 23.2742 19.8203 23.8071 19.4297 24.244C19.0391 24.6808 18.5625 24.8992 18 24.8992C17.4375 24.8992 16.9609 24.6808 16.5703 24.244C16.1797 23.8071 15.9844 23.2742 15.9844 22.6452C15.9844 22.0161 16.1797 21.4832 16.5703 21.0464C16.9609 20.6095 17.4375 20.3911 18 20.3911C18.5625 20.3911 19.0391 20.6095 19.4297 21.0464C19.8203 21.4832 20.0156 22.0161 20.0156 22.6452Z" fill="black"/>
</svg>
