<svg width="12" height="18" viewBox="0 0 12 18" fill="none" xmlns="http://www.w3.org/2000/svg">
<path d="M10 5.85H12C12 3.2967 9.245 2.1321 7 1.8639V0H5V1.8639C2.755 2.1321 0 3.2967 0 5.85C0 8.2854 2.666 9.5517 5 9.837V14.31C3.552 14.0841 2 13.3884 2 12.15H0C0 14.4801 2.425 15.8571 5 16.1424V18H7V16.137C9.245 15.8688 12 14.7033 12 12.15C12 9.5967 9.245 8.4321 7 8.1639V3.69C8.33 3.9051 10 4.5369 10 5.85V5.85ZM2 5.85C2 4.5369 3.67 3.9051 5 3.69V8.0091C3.629 7.7814 2 7.1073 2 5.85ZM10 12.15C10 13.4631 8.33 14.0949 7 14.31V9.99C8.33 10.2051 10 10.8369 10 12.15V12.15Z" fill="#767676"/>
</svg>
