<svg width="12" height="18" viewBox="0 0 12 18" fill="none" xmlns="http://www.w3.org/2000/svg">
<path d="M7.70677 2.25C8.87111 2.25 9.96949 2.93962 10.8 4.19175L12.001 2.67075C10.8578 0.948375 9.33277 0 7.70677 0C6.07996 0 4.55573 0.948375 3.41419 2.67188C2.84554 3.53092 2.40235 4.53367 2.109 5.625H0.000976562V7.875H1.72224C1.6913 8.24625 1.67013 8.62087 1.67013 9C1.67013 9.37913 1.6913 9.75375 1.72224 10.125H0.000976562V12.375H2.109C2.40374 13.4663 2.84261 14.4686 3.41419 15.3292C4.55573 17.0516 6.07996 18 7.70677 18C9.33277 18 10.8578 17.0516 12.0002 15.3292L10.7992 13.8083C9.96949 15.0604 8.87111 15.75 7.70677 15.75C6.54243 15.75 5.44486 15.0615 4.61436 13.8083C4.33555 13.3748 4.09879 12.893 3.91005 12.375H7.32897V10.125H3.37104C3.33033 9.756 3.29857 9.3825 3.29857 9C3.29857 8.6175 3.33033 8.244 3.37104 7.875H7.32897V5.625H3.91005C4.10547 5.11088 4.33019 4.62037 4.61436 4.19175C5.44486 2.93962 6.54243 2.25 7.70677 2.25Z" fill="#767676"/>
</svg>
