<svg width="28" height="28" viewBox="0 0 28 28" fill="none" xmlns="http://www.w3.org/2000/svg">
<g clip-path="url(#clip0_16:47)">
<path d="M12.9426 17.5216L8.70813 20.1462L9.93769 15.3371L6.11678 12.1709L11.0858 11.8069L12.9022 7.2409L14.8009 11.8052L19.6866 12.1695L15.9486 15.3377L17.0948 20.1447L12.9426 17.5216Z" fill="#FCC21B"/>
<path d="M19.5839 23.6226C19.6744 23.5579 19.7437 23.4678 19.7829 23.3636C19.8221 23.2595 19.8295 23.1461 19.8041 23.0378L18.1352 16.0549L23.5647 11.457C23.6495 11.3847 23.7109 11.2888 23.7411 11.1815C23.7712 11.0742 23.7687 10.9604 23.734 10.8545C23.6639 10.6387 23.4715 10.4861 23.2434 10.4681L16.1483 9.93972L13.3935 3.30782C13.3501 3.20523 13.2773 3.11773 13.1844 3.0563C13.0915 2.99488 12.9825 2.96225 12.8711 2.96252C12.6433 2.96785 12.4384 3.1049 12.3536 3.31678L9.7178 9.93819L2.50762 10.4683C2.27976 10.4845 2.08401 10.6385 2.0155 10.8559C1.97712 10.9714 1.97948 11.0899 2.01507 11.1994C2.04747 11.2991 2.10765 11.3898 2.18975 11.4589L7.73096 16.0541L5.95067 23.0283C5.89299 23.2512 5.97765 23.484 6.16251 23.6191C6.25242 23.6853 6.36015 23.7231 6.47176 23.7274C6.58336 23.7318 6.6937 23.7025 6.78848 23.6434L12.9332 19.8342L18.9593 23.6412C19.0532 23.7012 19.1631 23.7314 19.2745 23.7281C19.3859 23.7248 19.4937 23.688 19.5839 23.6226V23.6226ZM12.9426 17.5216L8.70868 20.1478L9.93771 15.3371L6.1179 12.1687L11.0869 11.8047L12.9033 7.23873L14.8003 11.8036L19.6866 12.1695L15.9486 15.3376L17.0965 20.1441L12.9426 17.5216Z" fill="#F79329"/>
</g>
<defs>
<clipPath id="clip0_16:47">
<rect width="22" height="22" fill="white" transform="translate(0 7) rotate(-18)"/>
</clipPath>
</defs>
</svg>
