<svg width="20" height="20" viewBox="0 0 20 20" fill="none" xmlns="http://www.w3.org/2000/svg">
<path d="M17.88 8.46166C17.9825 9.01083 18.0383 9.58499 18.0383 10.1842C18.0383 14.8708 14.9017 18.2033 10.1642 18.2033C9.08679 18.2037 8.01992 17.9917 7.0245 17.5796C6.02907 17.1674 5.12461 16.5632 4.3628 15.8014C3.60098 15.0395 2.99674 14.1351 2.5846 13.1397C2.17246 12.1442 1.9605 11.0774 1.96083 10C1.9605 8.92263 2.17246 7.85575 2.5846 6.86033C2.99674 5.8649 3.60098 4.96045 4.3628 4.19863C5.12461 3.43681 6.02907 2.83257 7.0245 2.42043C8.01992 2.00829 9.08679 1.79633 10.1642 1.79666C12.3792 1.79666 14.23 2.61166 15.65 3.935L13.3375 6.2475V6.24166C12.4767 5.42166 11.3842 5.00083 10.1642 5.00083C7.4575 5.00083 5.2575 7.2875 5.2575 9.995C5.2575 12.7017 7.4575 14.9933 10.1642 14.9933C12.62 14.9933 14.2917 13.5892 14.635 11.6608H10.1642V8.46166H17.8808H17.88Z" fill="black"/>
</svg>
