<svg width="18" height="18" viewBox="0 0 18 18" fill="none" xmlns="http://www.w3.org/2000/svg">
<path d="M2.25 14.625H3.9375C4.08984 14.625 4.22168 14.5693 4.33301 14.458C4.44434 14.3467 4.5 14.2148 4.5 14.0625V8.4375C4.5 8.28516 4.44434 8.15332 4.33301 8.04199C4.22168 7.93066 4.08984 7.875 3.9375 7.875H3.375C3.375 6.14063 3.8584 4.76953 4.8252 3.76172C5.79199 2.75391 7.18359 2.25 9 2.25C10.8164 2.25 12.208 2.75391 13.1748 3.76172C14.1416 4.76953 14.625 6.14063 14.625 7.875H14.0625C13.9102 7.875 13.7783 7.93066 13.667 8.04199C13.5557 8.15332 13.5 8.28516 13.5 8.4375V14.0625C13.5 14.2148 13.5557 14.3467 13.667 14.458C13.7783 14.5693 13.9102 14.625 14.0625 14.625H14.625C14.625 15.2461 14.4053 15.7764 13.9658 16.2158C13.5264 16.6553 12.9961 16.875 12.375 16.875H11.25C11.25 16.5586 11.1416 16.292 10.9248 16.0752C10.708 15.8584 10.4414 15.75 10.125 15.75H9C8.68359 15.75 8.41699 15.8584 8.2002 16.0752C7.9834 16.292 7.875 16.5557 7.875 16.8662C7.875 17.1768 7.9834 17.4434 8.2002 17.666C8.41699 17.8887 8.68359 18 9 18H12.375C13.3125 18 14.1094 17.6719 14.7656 17.0156C15.4219 16.3594 15.75 15.5625 15.75 14.625C16.3711 14.625 16.9014 14.2969 17.3408 13.6406C17.7803 12.9844 18 12.1875 18 11.25C18 10.6406 17.8975 10.0781 17.6924 9.5625C17.4873 9.04687 17.2148 8.64258 16.875 8.34961V7.875C16.875 6.80859 16.667 5.78906 16.251 4.81641C15.835 3.84375 15.2754 3.00586 14.5723 2.30273C13.8691 1.59961 13.0312 1.04004 12.0586 0.624023C11.0859 0.208008 10.0664 0 9 0C7.93359 0 6.91406 0.208008 5.94141 0.624023C4.96875 1.04004 4.13086 1.59961 3.42773 2.30273C2.72461 3.00586 2.16504 3.84375 1.74902 4.81641C1.33301 5.78906 1.125 6.80859 1.125 7.875V8.34961C0.785156 8.64258 0.512695 9.04687 0.307617 9.5625C0.102539 10.0781 0 10.6406 0 11.25C0 12.1875 0.219727 12.9844 0.65918 13.6406C1.09863 14.2969 1.62891 14.625 2.25 14.625Z" fill="white"/>
</svg>
