<svg width="15" height="13" viewBox="0 0 15 13" fill="none" xmlns="http://www.w3.org/2000/svg">
<path d="M14.6371 2.66339C14.4044 2.14206 14.0688 1.66963 13.6491 1.27256C13.2292 0.874301 12.734 0.557811 12.1906 0.340299C11.6272 0.113857 11.0228 -0.0020487 10.4127 -0.000690098C9.55665 -0.000690098 8.72148 0.226076 7.99571 0.654412C7.82208 0.756876 7.65713 0.869419 7.50086 0.992041C7.34459 0.869419 7.17964 0.756876 7.00601 0.654412C6.28023 0.226076 5.44507 -0.000690098 4.58907 -0.000690098C3.97268 -0.000690098 3.37539 0.113533 2.81109 0.340299C2.26588 0.558666 1.77451 0.872779 1.35259 1.27256C0.932393 1.66918 0.596731 2.14172 0.364625 2.66339C0.123278 3.20595 0 3.7821 0 4.37505C0 4.93441 0.118069 5.51728 0.352471 6.11023C0.548674 6.60576 0.829956 7.11976 1.18937 7.6388C1.75888 8.4602 2.54196 9.31687 3.51429 10.1853C5.12559 11.6248 6.72126 12.6193 6.78897 12.6596L7.20048 12.9149C7.38279 13.0274 7.61719 13.0274 7.7995 12.9149L8.21101 12.6596C8.27873 12.6176 9.87266 11.6248 11.4857 10.1853C12.458 9.31687 13.2411 8.4602 13.8106 7.6388C14.17 7.11976 14.453 6.60576 14.6475 6.11023C14.8819 5.51728 15 4.93441 15 4.37505C15.0017 3.7821 14.8784 3.20595 14.6371 2.66339V2.66339Z" fill="black"/>
</svg>
