<svg width="25" height="24" viewBox="0 0 25 24" fill="none" xmlns="http://www.w3.org/2000/svg">
<path d="M12.2522 13C10.5953 13 9.2522 11.6569 9.2522 10C9.2522 8.34315 10.5953 7 12.2522 7C13.9091 7 15.2522 8.34315 15.2522 10C15.2522 11.6569 13.9091 13 12.2522 13Z" stroke="#9174CE" stroke-width="2" stroke-linecap="round" stroke-linejoin="round"/>
<path d="M12.2522 2C14.3739 2 16.4088 2.84285 17.9091 4.34315C19.4093 5.84344 20.2522 7.87827 20.2522 10C20.2522 11.892 19.8502 13.13 18.7522 14.5L12.2522 22L5.7522 14.5C4.6542 13.13 4.2522 11.892 4.2522 10C4.2522 7.87827 5.09505 5.84344 6.59534 4.34315C8.09563 2.84285 10.1305 2 12.2522 2V2Z" stroke="#9174CE" stroke-width="2" stroke-linecap="round" stroke-linejoin="round"/>
</svg>
