<svg width="21" height="21" viewBox="0 0 21 21" fill="none" xmlns="http://www.w3.org/2000/svg">
<path d="M18.6667 3.5H2.33334C2.02392 3.5 1.72717 3.62292 1.50838 3.84171C1.28959 4.0605 1.16667 4.35725 1.16667 4.66667V16.3333C1.16667 16.6428 1.28959 16.9395 1.50838 17.1583C1.72717 17.3771 2.02392 17.5 2.33334 17.5H18.6667C18.9761 17.5 19.2728 17.3771 19.4916 17.1583C19.7104 16.9395 19.8333 16.6428 19.8333 16.3333V4.66667C19.8333 4.35725 19.7104 4.0605 19.4916 3.84171C19.2728 3.62292 18.9761 3.5 18.6667 3.5V3.5ZM17.7683 16.3333H3.30167L7.385 12.11L6.545 11.2992L2.33334 15.6567V5.55333L9.58417 12.7692C9.80276 12.9865 10.0985 13.1084 10.4067 13.1084C10.7149 13.1084 11.0106 12.9865 11.2292 12.7692L18.6667 5.3725V15.5808L14.3733 11.2875L13.5508 12.11L17.7683 16.3333ZM3.0975 4.66667H17.7217L10.4067 11.9408L3.0975 4.66667Z" fill="#9174CE"/>
</svg>
