<svg width="20" height="20" viewBox="0 0 20 20" fill="none" xmlns="http://www.w3.org/2000/svg">
<path d="M4.23083 7.88085C4.23083 7.23251 4.34416 6.62001 4.56749 6.04835C4.78087 5.4931 5.09789 4.98349 5.50166 4.54668C5.90461 4.11561 6.36572 3.74285 6.87166 3.43918C7.39076 3.12514 7.95274 2.88822 8.53999 2.73585C9.13434 2.57978 9.74634 2.50108 10.3608 2.50168C11.31 2.50168 12.1933 2.70252 13.0125 3.10252C13.821 3.49522 14.5091 4.09789 15.005 4.84751C15.5167 5.61001 15.7708 6.47251 15.7708 7.43418C15.7708 8.01085 15.7142 8.57501 15.5983 9.12668C15.4846 9.67804 15.3038 10.2134 15.06 10.7208C14.8276 11.2121 14.5238 11.6662 14.1583 12.0683C13.7911 12.4641 13.3463 12.7801 12.8517 12.9967C12.3147 13.232 11.7338 13.3505 11.1475 13.3442C10.74 13.3442 10.3333 13.2483 9.93166 13.0558C9.52999 12.8642 9.24166 12.6008 9.06833 12.2633C9.00749 12.4975 8.92416 12.8358 8.81333 13.2783C8.70666 13.72 8.63499 14.005 8.60333 14.1342C8.56999 14.2625 8.50833 14.4767 8.41833 14.7733C8.35729 14.9928 8.27899 15.2071 8.18416 15.4142L7.89749 15.9758C7.77352 16.2169 7.63493 16.4501 7.48249 16.6742C7.33166 16.8925 7.14499 17.1533 6.92249 17.4533L6.79833 17.4975L6.71583 17.4075C6.62666 16.4633 6.58083 15.8983 6.58083 15.7117C6.58083 15.1592 6.64666 14.5392 6.77666 13.8508C6.90416 13.1633 7.10583 12.2992 7.37666 11.26C7.64749 10.2217 7.80249 9.61085 7.84416 9.43001C7.65333 9.04085 7.55666 8.53251 7.55666 7.90751C7.55666 7.40835 7.71249 6.94085 8.02499 6.50085C8.33833 6.06251 8.73416 5.84335 9.21416 5.84335C9.58166 5.84335 9.86666 5.96501 10.0708 6.20918C10.2758 6.45251 10.3758 6.75918 10.3758 7.13335C10.3758 7.53001 10.2442 8.10418 9.97916 8.85501C9.71416 9.60668 9.58249 10.1675 9.58249 10.54C9.58249 10.9175 9.71749 11.2333 9.98749 11.4808C10.2539 11.7285 10.6063 11.8627 10.97 11.855C11.3 11.855 11.6058 11.78 11.89 11.6292C12.1697 11.4828 12.4118 11.2737 12.5975 11.0183C13.0018 10.4636 13.2901 9.83295 13.445 9.16418C13.525 8.81251 13.5867 8.47835 13.625 8.16418C13.6658 7.84835 13.6833 7.55001 13.6833 7.26668C13.6833 6.22751 13.3533 5.41751 12.6975 4.83751C12.0383 4.25751 11.18 3.96918 10.1242 3.96918C8.92333 3.96918 7.91916 4.35751 7.11499 5.13668C6.30999 5.91335 5.90499 6.90085 5.90499 8.09835C5.90499 8.36251 5.94499 8.61751 6.02083 8.86418C6.09499 9.11001 6.17583 9.30585 6.26333 9.45085C6.34999 9.59335 6.43166 9.73251 6.50583 9.86085C6.58083 9.98918 6.61999 10.0808 6.61999 10.1358C6.61999 10.3042 6.57583 10.5233 6.48666 10.7942C6.39416 11.065 6.28499 11.2 6.15333 11.2C6.14083 11.2 6.08916 11.1908 5.99916 11.1717C5.68746 11.0786 5.40597 10.9047 5.18333 10.6675C4.94702 10.4217 4.76054 10.1325 4.63416 9.81585C4.50814 9.50031 4.40999 9.17434 4.34083 8.84168C4.2661 8.52691 4.22918 8.20436 4.23083 7.88085V7.88085Z" fill="black"/>
</svg>
