<svg width="12" height="14" viewBox="0 0 12 14" fill="none" xmlns="http://www.w3.org/2000/svg">
<path fill-rule="evenodd" clip-rule="evenodd" d="M6 3C7.08064 3.00042 8.13207 3.35093 8.99679 3.99904C9.86152 4.64715 10.493 5.55797 10.7966 6.59508C11.1003 7.63219 11.0597 8.73976 10.6811 9.7519C10.3025 10.764 9.60612 11.6263 8.69634 12.2094C7.78656 12.7926 6.71232 13.0653 5.63454 12.9868C4.55675 12.9082 3.53343 12.4826 2.71785 11.7736C1.90226 11.0647 1.33831 10.1105 1.11047 9.0542C0.882627 7.99784 1.00316 6.89611 1.454 5.914C1.50307 5.7946 1.50406 5.66084 1.45675 5.54072C1.40945 5.42061 1.31752 5.32344 1.2002 5.26957C1.08289 5.21569 0.949281 5.20927 0.827345 5.25167C0.705408 5.29406 0.604593 5.38197 0.546 5.497C0.00500977 6.67559 -0.139565 7.99773 0.13393 9.26538C0.407426 10.533 1.08427 11.678 2.06308 12.5286C3.04188 13.3793 4.26996 13.89 5.56336 13.9842C6.85675 14.0783 8.14584 13.7509 9.23753 13.0509C10.3292 12.3509 11.1647 11.3161 11.6189 10.1014C12.0731 8.88676 12.1216 7.55762 11.757 6.31311C11.3924 5.0686 10.6344 3.97571 9.59652 3.19815C8.55866 2.42059 7.29682 2.00022 6 2V3Z" fill="white"/>
<path d="M6 4.466V0.534002C5.99998 0.486499 5.98643 0.439983 5.96093 0.399903C5.93543 0.359823 5.89904 0.327837 5.85602 0.307691C5.813 0.287545 5.76513 0.280073 5.71802 0.28615C5.67091 0.292226 5.6265 0.3116 5.59 0.342002L3.23 2.308C3.11 2.408 3.11 2.592 3.23 2.692L5.59 4.658C5.6265 4.6884 5.67091 4.70778 5.71802 4.71385C5.76513 4.71993 5.813 4.71246 5.85602 4.69231C5.89904 4.67217 5.93543 4.64018 5.96093 4.6001C5.98643 4.56002 5.99998 4.51351 6 4.466V4.466Z" fill="white"/>
</svg>
