<svg width="24" height="23" viewBox="0 0 24 23" fill="none" xmlns="http://www.w3.org/2000/svg">
<path d="M5 4H22L20 13H7L4 1H0L5 4ZM7 13L8 17H21L7 13ZM19 22C18.7348 22 18.4804 21.8946 18.2929 21.7071C18.1054 21.5196 18 21.2652 18 21C18 20.7348 18.1054 20.4804 18.2929 20.2929C18.4804 20.1054 18.7348 20 19 20C19.2652 20 19.5196 20.1054 19.7071 20.2929C19.8946 20.4804 20 20.7348 20 21C20 21.2652 19.8946 21.5196 19.7071 21.7071C19.5196 21.8946 19.2652 22 19 22ZM9 22C8.73478 22 8.48043 21.8946 8.29289 21.7071C8.10536 21.5196 8 21.2652 8 21C8 20.7348 8.10536 20.4804 8.29289 20.2929C8.48043 20.1054 8.73478 20 9 20C9.26522 20 9.51957 20.1054 9.70711 20.2929C9.89464 20.4804 10 20.7348 10 21C10 21.2652 9.89464 21.5196 9.70711 21.7071C9.51957 21.8946 9.26522 22 9 22Z" stroke="white" stroke-width="2"/>
</svg>
