<svg width="20" height="20" viewBox="0 0 20 20" fill="none" xmlns="http://www.w3.org/2000/svg">
<path d="M19.7025 4.11416C19.0067 4.4225 18.2592 4.63083 17.4733 4.725C18.2842 4.23983 18.8908 3.47622 19.18 2.57666C18.4182 3.02916 17.5845 3.34766 16.715 3.51833C16.1303 2.89405 15.3559 2.48027 14.5119 2.34123C13.668 2.20218 12.8018 2.34566 12.0477 2.74938C11.2937 3.15309 10.694 3.79447 10.3418 4.57392C9.98962 5.35337 9.90462 6.22729 10.1 7.06C8.55641 6.9825 7.04636 6.58129 5.66786 5.88242C4.28936 5.18355 3.07321 4.20263 2.09834 3.00333C1.765 3.57833 1.57334 4.245 1.57334 4.955C1.57297 5.59416 1.73037 6.22353 2.03157 6.78728C2.33278 7.35102 2.76847 7.8317 3.3 8.18667C2.68357 8.16705 2.08073 8.00049 1.54167 7.70083V7.75083C1.54161 8.64728 1.8517 9.51615 2.41932 10.21C2.98695 10.9038 3.77715 11.3799 4.65584 11.5575C4.08399 11.7123 3.48445 11.7351 2.9025 11.6242C3.15042 12.3955 3.63333 13.07 4.28364 13.5533C4.93395 14.0365 5.7191 14.3043 6.52917 14.3192C5.15403 15.3987 3.45574 15.9842 1.7075 15.9817C1.39782 15.9817 1.0884 15.9637 0.780838 15.9275C2.5554 17.0685 4.62112 17.674 6.73084 17.6717C13.8725 17.6717 17.7767 11.7567 17.7767 6.62667C17.7767 6.46 17.7725 6.29166 17.765 6.125C18.5244 5.57581 19.1799 4.89574 19.7008 4.11666L19.7025 4.11416V4.11416Z" fill="black"/>
</svg>
